<svg width="430" height="347" viewBox="0 0 430 347" fill="none" xmlns="http://www.w3.org/2000/svg">
<g clip-path="url(#clip0_2684_14)">
<g clip-path="url(#clip1_2684_14)">
<path d="M420.255 279.144V172.762H420.864C422.082 172.762 423.3 171.547 423.3 170.331V168.507C423.3 167.291 422.082 166.076 420.864 166.076H417.21C417.21 164.86 417.21 164.252 417.21 163.036C417.21 155.741 413.555 149.055 407.465 146.015C403.81 143.584 400.765 141.152 398.329 137.505C398.938 136.897 398.938 136.289 398.938 135.681C398.938 134.465 398.329 133.857 397.72 133.249L397.11 124.131H396.501L395.892 133.249C395.283 133.857 394.674 134.465 394.674 135.681C394.674 136.289 394.674 136.897 395.283 137.505C392.847 141.152 389.802 143.584 386.147 146.015C380.057 149.662 376.402 155.741 376.402 163.036C376.402 164.252 376.402 164.86 376.402 166.076H372.748C371.53 166.076 370.312 167.291 370.312 168.507V170.331C370.312 171.547 371.53 172.762 372.748 172.762H373.357V279.144H357.521L356.912 237.807H361.176V232.336H356.912L356.303 189.176H359.348V183.704H356.303L355.694 144.191H358.739V141.152H356.912V139.936H355.085V125.347H356.912V124.739H353.867C353.867 124.131 354.476 122.915 354.476 122.307C354.476 119.268 352.649 116.228 350.212 114.405C348.385 113.189 347.167 111.973 345.949 110.757L346.558 110.149C346.558 109.542 346.558 109.541 345.949 108.934V105.286H346.558C347.776 105.286 348.994 104.07 348.994 102.855C348.385 103.463 347.776 104.071 347.167 104.071C345.949 104.071 344.731 102.855 344.731 101.639C344.731 101.031 345.34 99.8152 345.949 99.8152C344.731 99.8152 343.513 101.031 343.513 102.247C343.513 103.463 344.122 104.678 345.34 104.678V108.326C344.731 108.326 344.731 108.934 344.731 109.542C344.731 109.542 344.731 110.149 345.34 110.149C344.122 111.973 342.904 113.189 341.076 113.797C338.64 115.62 336.813 118.052 336.813 121.699C336.813 122.915 336.813 123.523 337.422 124.131H332.55V125.347H334.377V139.936H332.55V141.152H330.722V144.191H334.377L333.768 183.704H330.722V189.176H333.768L333.159 232.336H328.895V237.807H333.159L332.55 279.144H320.368V214.099H320.977C321.586 214.099 322.195 213.491 322.195 212.883V212.275C322.195 211.667 321.586 211.06 320.977 211.06H319.15C319.15 210.452 319.15 209.844 319.15 209.236C319.15 204.981 316.714 201.941 313.669 199.51C311.841 198.294 310.014 196.47 308.796 194.647C308.796 194.647 309.405 194.039 309.405 193.431C309.405 192.823 308.796 192.215 308.796 192.215L308.187 187.352H307.578L306.969 192.215C306.36 192.215 306.36 192.823 306.36 193.431C306.36 194.039 306.36 194.039 306.969 194.647C305.751 196.47 303.924 198.294 302.096 199.51C299.051 201.333 296.615 204.981 296.615 209.236C296.615 209.844 296.615 210.452 296.615 211.06H294.788C294.178 211.06 293.569 211.667 293.569 212.275V212.883C293.569 213.491 294.178 214.099 294.788 214.099V239.631H286.87C288.697 234.767 289.306 229.296 289.306 223.825C289.306 204.373 278.952 187.352 263.725 178.233C254.589 172.155 246.062 164.86 239.972 155.741C241.19 154.526 241.799 153.31 241.799 151.486C241.799 149.055 239.972 146.623 238.144 146.015L236.926 124.131C238.144 124.131 238.754 124.131 239.972 124.131C247.89 124.131 254.589 118.052 255.807 110.149C253.371 114.405 249.108 118.052 243.626 118.052C236.317 118.052 230.227 111.973 230.227 104.678C230.227 99.2073 233.272 94.9521 238.144 92.5205C230.227 93.7363 224.136 100.423 224.136 108.326C224.136 115.62 229.008 121.699 235.099 123.523L233.881 145.407C231.445 146.623 230.227 148.447 230.227 150.878C230.227 152.702 230.836 154.526 232.054 155.133C225.354 164.252 217.436 171.547 208.3 177.625C193.074 187.352 182.72 203.765 182.72 223.217C182.72 228.688 183.329 234.16 185.156 239.023H172.365C172.365 238.415 172.365 237.199 172.365 236.591C172.365 218.962 158.966 204.373 141.912 201.941L139.476 195.254C139.476 195.254 139.476 195.254 138.867 195.254L137.649 177.018L136.431 195.254H135.822L133.385 201.941C116.331 203.765 102.932 218.354 102.932 236.591C102.932 240.238 103.541 243.886 104.759 246.925H93.1869V252.396H98.6685V279.144H90.1416L89.5326 251.181H92.5779V246.317H88.9235L88.3144 212.883H90.7507V208.628H88.3144L87.7054 178.233H88.9235V175.802H87.7054V175.194H85.8782V164.252H87.7054V163.036H85.2691C85.2691 162.428 85.8782 161.82 85.8782 161.212C85.8782 158.781 84.6601 156.349 82.2238 155.133C81.0057 154.526 79.7875 153.31 79.1785 152.094V151.486C79.1785 150.878 79.1785 150.878 78.5694 150.878V147.839C78.5694 147.839 78.5694 147.839 79.1785 147.839C80.3966 147.839 81.0057 147.231 81.0057 146.015C81.0057 146.623 80.3966 147.231 79.1785 147.231C77.9603 147.231 77.3513 146.623 77.3513 145.407C77.3513 144.799 77.9603 144.191 78.5694 143.584C77.3513 143.584 76.7422 144.799 76.7422 145.407C76.7422 146.623 77.3513 147.231 77.9603 147.231V150.27L77.3513 150.878V151.486C76.7422 152.702 75.5241 153.918 74.3059 154.526C72.4787 155.741 70.6515 158.173 70.6515 160.604C70.6515 161.212 70.6515 161.82 71.2606 162.428H68.8244V163.644H70.6515V174.586H69.4334V175.194H67.6062V177.625H70.0425L69.4334 208.02H66.9972V212.275H69.4334L68.8244 245.709H65.17V249.965H68.2153L67.6062 277.928H46.2889V222.61H46.898C47.5071 222.61 48.7252 222.002 48.7252 220.786V219.57C48.7252 218.962 48.1161 217.746 46.898 217.746H44.4618C44.4618 217.139 44.4618 216.531 44.4618 215.923C44.4618 211.668 42.0255 207.412 38.3711 205.589C35.9348 204.373 34.1076 202.549 32.8895 200.725C32.8895 200.725 33.4986 200.118 33.4986 199.51C33.4986 198.902 32.8895 198.294 32.8895 198.294L32.2804 192.823H31.6714L31.0623 198.294C30.4532 198.294 30.4533 198.902 30.4533 199.51C30.4533 200.118 30.4532 200.118 31.0623 200.725C29.8442 202.549 28.017 204.373 25.5807 205.589C21.9263 208.02 19.4901 211.668 19.4901 215.923C19.4901 216.531 19.4901 217.139 19.4901 217.746H17.0538C16.4448 217.746 15.2266 218.354 15.2266 219.57V220.786C15.2266 221.394 15.8357 222.61 17.0538 222.61H17.6629V277.928H0V363.033H430V277.928H420.255V279.144ZM24.9717 246.925H20.7082V234.16C20.7082 231.12 21.9263 228.081 23.1445 227.473C24.3626 228.081 25.5807 231.12 25.5807 234.16V246.925H24.9717ZM38.3711 246.925H26.7989V232.944C26.7989 229.296 29.2351 226.257 32.2804 225.649C35.3258 226.865 37.762 229.296 37.762 232.944V246.925H38.3711ZM44.4618 246.925H40.1983V234.16C40.1983 231.12 41.4164 228.081 42.6346 227.473C43.8527 228.081 45.0708 231.12 45.0708 234.16V246.925H44.4618ZM73.6969 174.586H72.4787V165.468C72.4787 164.86 72.4788 164.86 73.0878 164.86C73.6969 164.86 73.6969 164.86 73.6969 165.468V174.586ZM76.1331 174.586H74.915V165.468C74.915 164.86 74.915 164.86 75.5241 164.86C76.1331 164.86 76.1331 164.86 76.1331 165.468V174.586ZM79.1785 174.586H77.9603V165.468C77.9603 164.86 77.9603 164.86 78.5694 164.86C79.1785 164.86 79.1785 164.86 79.1785 165.468V174.586ZM82.2238 174.586H81.0057V165.468C81.0057 164.86 81.0057 164.86 81.6147 164.86C82.2238 164.86 82.2238 164.86 82.2238 165.468V174.586ZM84.66 174.586H83.4419V165.468C83.4419 164.86 83.4419 164.86 84.051 164.86C84.6601 164.86 84.66 164.86 84.66 165.468V174.586ZM300.269 234.767H296.006V223.217C296.006 220.178 296.615 217.746 297.833 217.139C299.051 217.746 299.66 220.178 299.66 223.217V234.767H300.269ZM312.45 234.767H302.096V222.002C302.096 218.962 304.533 215.923 307.578 215.315C310.623 215.923 313.059 218.962 313.059 222.002V234.767H312.45ZM318.541 234.767H314.278V223.217C314.278 220.178 314.887 217.746 316.105 217.139C317.323 217.746 317.932 220.178 317.932 223.217V234.767H318.541ZM338.031 139.936H336.204V128.386C336.204 127.778 336.813 127.778 336.813 127.778H337.422C338.031 127.778 338.031 128.386 338.031 128.386V139.936ZM341.686 139.936H339.858V128.386C339.858 127.778 340.467 127.778 340.467 127.778H341.076C341.686 127.778 341.686 128.386 341.686 128.386V139.936ZM345.34 139.936H343.513V128.386C343.513 127.778 344.122 127.778 344.122 127.778H344.731C345.34 127.778 345.34 128.386 345.34 128.386V139.936ZM348.994 139.936H347.167V128.386C347.167 127.778 347.776 127.778 347.776 127.778H348.385C348.994 127.778 348.994 128.386 348.994 128.386V139.936ZM352.649 139.936H350.822V128.386C350.822 127.778 351.431 127.778 351.431 127.778H352.04C352.649 127.778 352.649 128.386 352.649 128.386V139.936ZM384.32 211.06H377.011V189.783C377.011 184.312 378.839 180.057 380.666 178.233C383.102 179.449 384.32 184.312 384.32 189.783V211.06ZM406.246 211.06H387.365V187.96C387.365 181.881 391.629 177.018 397.11 175.194C402.592 177.018 406.855 181.881 406.855 187.96V211.06H406.246ZM417.21 211.06H409.901V189.783C409.901 184.312 411.728 180.057 413.555 178.233C415.992 179.449 417.21 184.312 417.21 189.783V211.06Z" fill="url(#paint0_linear_2684_14)"/>
<path d="M210.566 190.909C210.741 190.207 210.917 189.504 210.917 188.626C210.917 185.289 208.809 182.655 205.999 181.601C205.999 181.601 205.999 181.601 205.999 181.426C205.999 180.372 205.297 179.318 204.243 178.967L203.892 177.913C203.892 177.738 204.068 177.738 204.068 177.562C204.068 177.387 203.892 177.035 203.716 177.035L203.541 173.523L203.365 177.035C203.19 177.211 203.014 177.387 203.014 177.562C203.014 177.738 203.014 177.738 203.19 177.913L202.838 178.967C201.785 179.318 201.082 180.196 201.082 181.426C201.082 181.426 201.082 181.426 201.082 181.601C198.097 182.655 196.165 185.465 196.165 188.626C196.165 189.329 196.34 190.207 196.516 190.909H193.706H193.531V177.738H193.706C194.057 177.738 194.233 177.387 194.233 177.211V176.86C194.233 176.508 193.882 176.333 193.706 176.333H192.828C192.828 176.157 192.828 175.806 192.828 175.63C192.828 174.05 191.95 172.645 190.721 171.767C190.018 171.24 189.316 170.713 188.789 169.835C188.965 169.659 188.965 169.659 188.965 169.484C188.965 169.308 188.789 169.132 188.613 168.957L188.438 167.025H188.262L188.086 168.957C187.911 168.957 187.735 169.132 187.735 169.484C187.735 169.659 187.735 169.835 187.911 169.835C187.384 170.537 186.682 171.24 185.979 171.767C184.75 172.469 183.872 173.874 183.872 175.63C183.872 175.806 183.872 176.157 183.872 176.333H183.169C182.818 176.333 182.642 176.684 182.642 176.86V177.211C182.642 177.562 182.994 177.738 183.169 177.738V186.167H181.237C181.764 185.289 181.94 184.236 181.94 183.182C181.94 179.494 178.603 176.333 173.686 174.577C170.525 173.347 167.715 171.942 165.607 170.011C165.607 169.835 165.783 169.659 165.783 169.484C165.783 168.957 165.432 168.606 165.081 168.43L164.729 163.864H164.378L164.027 168.43C163.676 168.606 163.324 168.957 163.324 169.484C163.324 169.659 163.324 169.835 163.5 170.011C161.393 171.767 158.583 173.347 155.422 174.577C150.504 176.333 147.168 179.494 147.168 183.182C147.168 183.709 147.343 184.411 147.519 184.938H146.114C146.641 183.533 146.816 181.953 146.816 180.196C146.816 172.118 140.67 165.445 132.943 164.566L131.889 161.581H131.713L131.186 153.151L130.659 161.581C130.484 161.581 130.484 161.581 130.484 161.581L129.43 164.566C123.635 165.269 118.717 169.132 116.61 174.401L116.434 165.62H117.313V164.04H116.434L116.259 152.8H117.137V151.922H116.434V151.571H115.908V147.532H116.434V147.18H115.556C115.556 147.005 115.732 146.653 115.732 146.478C115.732 145.6 115.205 144.722 114.503 144.195C113.976 143.844 113.625 143.492 113.273 143.141L113.449 142.965C113.449 142.79 113.449 142.79 113.273 142.614V141.561H113.449C113.8 141.561 114.151 141.209 114.151 140.858C113.976 141.034 113.8 141.209 113.625 141.209C113.273 141.209 112.922 140.858 112.922 140.507C112.922 140.331 113.098 139.98 113.273 139.98C112.922 139.98 112.571 140.331 112.571 140.682C112.571 141.034 112.746 141.385 113.098 141.385V142.439C112.922 142.439 112.922 142.614 112.922 142.79C112.922 142.79 112.922 142.965 113.098 142.965C112.746 143.317 112.395 143.844 111.868 144.019C111.166 144.546 110.639 145.248 110.639 146.302C110.639 146.653 110.639 146.829 110.815 147.005H109.937V147.356H110.463V151.395H109.937V151.746H109.41V152.624H110.288L110.112 163.864H109.234V165.445H110.112L109.937 177.738H108.707V179.318H109.41L109.234 184.938H105.019C106.424 182.479 107.127 179.67 107.127 177.035C107.127 167.376 98.3459 158.771 84.9989 154.029C76.3937 150.868 69.0177 146.829 63.2223 142.087C63.398 141.561 63.5736 141.209 63.5736 140.682C63.5736 139.453 62.8711 138.399 61.6418 137.873L60.7637 125.579H60.2368L59.3588 137.873C58.305 138.399 57.427 139.453 57.427 140.682C57.427 141.209 57.6026 141.736 57.7782 142.263C51.9828 147.18 44.7825 151.219 36.0016 154.205C33.543 155.083 31.2599 156.137 29.1525 157.19V121.891H29.3281C29.855 121.891 30.2062 121.54 30.2062 121.013V120.486C30.2062 119.96 29.855 119.608 29.3281 119.608H28.0988C28.0988 119.257 28.2744 118.906 28.2744 118.555C28.2744 115.92 26.8695 113.637 24.9377 112.408C23.7084 111.706 22.6547 110.652 21.7766 109.423C21.9522 109.247 21.9522 109.071 21.9522 108.896C21.9522 108.544 21.7766 108.193 21.4253 108.193L21.2497 104.856H21.0741L20.8985 108.193C20.5473 108.369 20.3716 108.544 20.3716 108.896C20.3716 109.071 20.5473 109.423 20.5473 109.423C19.6692 110.652 18.6155 111.706 17.3861 112.408C15.2787 113.637 14.0494 115.92 14.0494 118.555C14.0494 118.906 14.0494 119.257 14.225 119.608H12.8201C12.2932 119.608 11.942 119.96 11.942 120.486V121.013C11.942 121.54 12.2932 121.891 12.8201 121.891H12.9957V144.37C10.5371 137.346 5.971 131.199 0 126.984V321.92H211.97V192.138H213.2V191.085H210.566V190.909ZM16.6837 135.414H14.0494V127.862C14.0494 125.931 14.5763 124.35 15.4543 123.823C16.1568 124.35 16.8593 125.931 16.8593 127.862V135.414H16.6837ZM24.5865 135.414H17.913V127.16C17.913 125.052 19.3179 123.296 21.2497 122.769C23.1815 123.296 24.5865 125.052 24.5865 127.16V135.414ZM28.2744 135.414H25.6402V127.862C25.6402 125.931 26.167 124.35 27.0451 123.823C27.7476 124.35 28.4501 125.931 28.4501 127.862V135.414H28.2744ZM111.166 151.746H110.639V148.41C110.639 148.234 110.815 148.234 110.815 148.234H110.99C111.166 148.234 111.166 148.41 111.166 148.41V151.746ZM112.22 151.746H111.693V148.41C111.693 148.234 111.868 148.234 111.868 148.234H112.044C112.22 148.234 112.22 148.41 112.22 148.41V151.746ZM113.273 151.746H112.747V148.41C112.747 148.234 112.922 148.234 112.922 148.234H113.098C113.273 148.234 113.273 148.41 113.273 148.41V151.746ZM114.327 151.746H113.8V148.41C113.8 148.234 113.976 148.234 113.976 148.234H114.151C114.327 148.234 114.327 148.41 114.327 148.41V151.746ZM115.381 151.746H114.678V148.41C114.678 148.234 114.854 148.234 114.854 148.234H115.03C115.205 148.234 115.205 148.41 115.205 148.41V151.746H115.381ZM185.628 186.167H184.047V181.601C184.047 180.372 184.398 179.494 184.925 179.143C185.452 179.494 185.803 180.372 185.803 181.601V186.167H185.628ZM190.369 186.167H187.208H186.155V181.074C186.155 179.845 187.033 178.616 188.262 178.265C189.491 178.616 190.369 179.67 190.369 181.074V186.167ZM192.828 186.167H191.248V181.601C191.248 180.372 191.599 179.494 192.126 179.143C192.653 179.494 193.004 180.372 193.004 181.601V186.167H192.828Z" fill="url(#paint1_linear_2684_14)"/>
<path d="M163.851 262.854V221.057H164.027C164.554 221.057 165.081 220.531 165.081 220.004V219.477C165.081 218.95 164.554 218.423 164.027 218.423H162.622C162.622 218.072 162.798 217.545 162.798 217.194C162.798 214.384 161.217 211.75 158.934 210.345C157.529 209.467 156.3 208.413 155.422 207.008C155.597 206.832 155.773 206.657 155.773 206.306C155.773 205.954 155.597 205.603 155.246 205.428L155.07 201.74H154.719L154.543 205.428C154.192 205.603 154.017 205.954 154.017 206.306C154.017 206.657 154.192 206.832 154.368 207.008C153.49 208.413 152.26 209.467 150.856 210.345C148.572 211.75 146.992 214.208 146.992 217.194C146.992 217.545 146.992 218.072 147.168 218.423H145.763C145.236 218.423 144.709 218.95 144.709 219.477V220.004C144.709 220.531 145.236 221.057 145.763 221.057H145.938V262.854H139.616L139.265 246.698H140.845V244.59H139.089L138.738 227.731H139.967V225.624H138.738L138.387 210.169H139.616V208.94H138.914V208.589H138.211V202.969H138.914V202.442H137.684C137.86 202.091 137.86 201.74 137.86 201.388C137.86 200.159 137.157 198.93 136.104 198.403C135.401 198.052 134.874 197.525 134.523 196.822C134.523 196.822 134.699 196.647 134.699 196.471C134.699 196.295 134.523 196.12 134.523 196.12L134.347 194.715H134.523C135.05 194.715 135.577 194.364 135.577 193.837C135.401 194.188 135.05 194.364 134.699 194.364C134.172 194.364 133.821 194.012 133.821 193.485C133.821 193.134 133.996 192.783 134.347 192.607C133.821 192.607 133.469 193.134 133.469 193.661C133.469 194.188 133.821 194.539 134.172 194.715L133.996 196.12C133.821 196.12 133.821 196.295 133.821 196.471C133.821 196.647 133.821 196.647 133.996 196.822C133.645 197.349 132.943 197.876 132.416 198.403C131.362 199.105 130.659 200.159 130.659 201.388C130.659 201.74 130.659 202.091 130.835 202.442H129.606V202.969H130.308V208.589H129.606V208.94H128.903V210.169H130.308L129.957 225.624H128.552V227.731H129.781L129.43 244.59H127.674V246.698H129.255L128.903 262.854H124.513V237.214H124.688C125.04 237.214 125.215 236.863 125.215 236.687V236.336C125.215 235.985 125.04 235.809 124.688 235.809H123.81C123.81 235.634 123.81 235.282 123.81 235.107C123.81 233.526 122.932 232.121 121.703 231.419C121.001 230.892 120.298 230.365 119.771 229.663C119.947 229.487 119.947 229.487 119.947 229.311C119.947 229.136 119.771 228.96 119.596 228.785L119.42 226.853H119.244L119.069 228.785C118.893 228.785 118.718 228.96 118.718 229.311C118.718 229.487 118.717 229.663 118.893 229.663C118.366 230.365 117.664 231.068 116.961 231.419C115.732 232.121 114.854 233.526 114.854 235.107C114.854 235.282 114.854 235.634 114.854 235.809H114.503C114.151 235.809 113.976 236.161 113.976 236.336V236.687C113.976 237.039 114.327 237.214 114.503 237.214V247.224H111.517C112.044 245.293 112.395 243.185 112.395 240.902C112.395 233.351 108.356 226.677 102.385 222.989C98.6971 220.706 95.536 217.721 92.9017 214.208C93.4286 213.682 93.6042 213.155 93.6042 212.452C93.6042 211.398 93.0773 210.52 92.1992 210.169L91.6724 201.74C92.0236 201.74 92.3749 201.915 92.7261 201.915C95.8872 201.915 98.5215 199.456 99.0483 196.471C98.1702 198.227 96.4141 199.456 94.3067 199.456C91.3212 199.456 89.0381 196.998 89.0381 194.188C89.0381 192.081 90.2674 190.324 92.0236 189.446C88.8625 189.798 86.5795 192.432 86.5795 195.769C86.5795 198.578 88.3357 200.861 90.9699 201.74L90.4431 210.52C89.565 210.872 89.0381 211.75 89.0381 212.803C89.0381 213.506 89.3894 214.208 89.7406 214.56C87.2819 218.072 83.9452 221.057 80.2572 223.34C74.2862 227.028 70.247 233.702 70.247 241.253C70.247 243.361 70.5983 245.468 71.1251 247.576H66.0322C66.0322 247.224 66.0322 246.873 66.0322 246.522C66.0322 239.497 60.7637 233.702 53.9146 232.999L53.0365 230.365C53.0365 230.365 53.0365 230.365 52.8609 230.365L52.334 223.165L51.8072 230.365C51.6316 230.365 51.6316 230.365 51.6316 230.365L50.7535 232.999C43.9044 233.878 38.6359 239.497 38.6359 246.522C38.6359 247.927 38.8115 249.332 39.1627 250.561H34.5967V252.669H36.7041V263.206H33.7186L33.543 252.142H34.7723V250.386H33.3673L33.1917 237.214H34.0698V235.458H33.1917L33.0161 223.34H34.0698V222.287H33.543V221.936H33.0161V217.545H33.543V217.194H32.6649C32.6649 217.018 32.8405 216.667 32.8405 216.316C32.8405 215.262 32.3136 214.384 31.4356 213.857C30.9087 213.506 30.5575 213.155 30.2062 212.628L30.3818 212.452C30.3818 212.277 30.3818 212.277 30.2062 212.101V211.047H30.3818C30.7331 211.047 31.0843 210.696 31.2599 210.345C31.0843 210.52 30.9087 210.696 30.5575 210.696C30.2062 210.696 29.855 210.345 29.855 209.994C29.855 209.642 30.0306 209.467 30.2062 209.291C29.855 209.291 29.5038 209.642 29.5038 210.169C29.5038 210.52 29.6794 210.872 30.0306 211.047V212.277C29.855 212.277 29.855 212.452 29.855 212.628C29.855 212.803 29.855 212.803 30.0306 212.803C29.6794 213.33 29.3281 213.682 28.8013 214.033C27.9232 214.56 27.3963 215.438 27.3963 216.491C27.3963 216.843 27.3963 217.018 27.572 217.37H26.6939V217.721H27.2207V222.111H26.6939V222.462H26.167V223.516H27.2207L27.0451 235.634H26.167V237.39H27.0451L26.8695 250.561H25.4646V252.317H26.6939L26.5183 263.381H17.913V241.605H18.0886C18.4398 241.605 18.7911 241.253 18.7911 240.902V240.024C18.7911 239.673 18.4398 239.322 18.0886 239.322H17.2105C17.2105 239.146 17.2105 238.795 17.2105 238.619C17.2105 236.863 16.3324 235.458 14.9275 234.58C14.0494 234.053 13.3469 233.351 12.8201 232.648C12.9957 232.473 12.9957 232.473 12.9957 232.297C12.9957 232.121 12.8201 231.946 12.6445 231.77L12.4689 229.663H12.2932L12.1176 231.77C11.942 231.77 11.7664 232.121 11.7664 232.297C11.7664 232.473 11.7664 232.648 11.942 232.648C11.4151 233.526 10.7127 234.053 9.83459 234.58C8.42965 235.458 7.55156 236.863 7.55156 238.619C7.55156 238.795 7.55156 239.146 7.55156 239.322H6.67347C6.32224 239.322 5.971 239.673 5.971 240.024V240.375C5.971 240.727 6.32224 241.078 6.67347 241.078H6.84909V262.854H0V351.717H168.242V262.854H163.851ZM8.78088 250.21H7.0247V245.293C7.0247 244.063 7.37594 243.01 7.90279 242.658C8.42964 243.01 8.78088 244.063 8.78088 245.293V250.21ZM13.8738 250.21H9.48335V244.766C9.48335 243.361 10.3614 242.132 11.7664 241.78C12.9957 242.132 14.0494 243.361 14.0494 244.766V250.21H13.8738ZM16.5081 250.21H14.7519V245.293C14.7519 244.063 15.1031 243.01 15.63 242.658C16.1568 243.01 16.5081 244.063 16.5081 245.293V250.21ZM27.7476 221.936H27.2207V218.423C27.2207 218.248 27.3963 218.248 27.3963 218.248H27.572C27.7476 218.248 27.7476 218.423 27.7476 218.423V221.936ZM28.9769 221.936H28.4501V218.423C28.4501 218.248 28.6257 218.248 28.6257 218.248H28.8013C28.9769 218.248 28.9769 218.423 28.9769 218.423V221.936ZM30.0306 221.936H29.5038V218.423C29.5038 218.248 29.6794 218.248 29.6794 218.248H29.855C30.0306 218.248 30.0306 218.423 30.0306 218.423V221.936ZM31.0843 221.936H30.5575V218.423C30.5575 218.248 30.7331 218.248 30.7331 218.248H30.9087C31.0843 218.248 31.0843 218.423 31.0843 218.423V221.936ZM32.138 221.936H31.6112V218.423C31.6112 218.248 31.7868 218.248 31.7868 218.248H31.9624C32.138 218.248 32.138 218.423 32.138 218.423V221.936ZM116.786 245.468H115.205V240.902C115.205 239.673 115.556 238.795 116.083 238.444C116.61 238.795 116.961 239.673 116.961 240.902V245.468H116.786ZM121.703 245.468H117.664V240.375C117.664 239.146 118.542 237.917 119.771 237.741C121.001 238.092 121.879 239.146 121.879 240.375V245.468H121.703ZM123.986 245.468H122.405V240.902C122.405 239.673 122.757 238.795 123.284 238.444C123.81 238.795 124.162 239.673 124.162 240.902V245.468H123.986ZM131.713 208.237H131.011V203.671C131.011 203.496 131.186 203.32 131.362 203.32H131.538C131.713 203.32 131.889 203.496 131.889 203.671V208.237H131.713ZM133.118 208.237H132.416V203.671C132.416 203.496 132.591 203.32 132.767 203.32H132.943C133.118 203.32 133.294 203.496 133.294 203.671V208.237H133.118ZM134.523 208.237H133.821V203.671C133.821 203.496 133.996 203.32 134.172 203.32H134.347C134.523 203.32 134.699 203.496 134.699 203.671V208.237H134.523ZM135.928 208.237H135.226V203.671C135.226 203.496 135.401 203.32 135.577 203.32C135.752 203.32 135.928 203.496 135.928 203.671V208.237ZM137.333 208.237H136.63V203.671C136.63 203.496 136.806 203.32 136.982 203.32H137.157C137.333 203.32 137.509 203.496 137.509 203.671V208.237H137.333ZM149.802 236.161H146.816V227.907C146.816 225.799 147.519 224.043 148.221 223.516C149.099 224.043 149.626 225.799 149.626 227.907V236.161H149.802ZM158.407 236.161H151.031V227.028C151.031 224.745 152.612 222.638 154.719 222.111C156.827 222.638 158.407 224.745 158.407 227.028V236.161ZM162.622 236.161H159.636V227.907C159.636 225.799 160.339 224.043 161.041 223.516C161.919 224.043 162.446 225.799 162.446 227.907V236.161H162.622Z" fill="url(#paint2_linear_2684_14)"/>
<path d="M221.168 250.544V322.722H430.153V251.07H430.855V250.368H429.45C429.626 250.017 429.626 249.49 429.626 249.139C429.626 247.383 428.397 245.802 426.816 245.275C426.816 244.573 426.465 244.221 425.938 243.87L425.762 243.343V243.168C425.762 242.992 425.762 242.992 425.587 242.816L425.411 240.885L425.236 242.816C425.06 242.816 425.06 242.992 425.06 243.168V243.343L424.884 243.87C424.358 244.046 424.006 244.573 424.006 245.275C422.426 245.802 421.196 247.383 421.196 249.139C421.196 249.49 421.196 250.017 421.372 250.368H419.967H419.791V243.168C419.967 243.168 420.143 242.992 420.143 242.816V242.641C420.143 242.465 419.967 242.29 419.791 242.29H419.265C419.265 242.114 419.265 242.114 419.265 241.938C419.265 241.06 418.738 240.358 418.035 239.831C417.684 239.48 417.157 239.304 416.982 238.777L417.157 238.602C417.157 238.426 417.157 238.426 416.982 238.426C416.806 238.426 416.806 238.602 416.806 238.602C416.806 238.602 416.806 238.777 416.982 238.777C416.63 239.128 416.279 239.48 415.928 239.831C415.225 240.182 414.699 241.06 414.699 241.938C414.699 242.114 414.699 242.114 414.699 242.29H414.347C414.172 242.29 413.996 242.465 413.996 242.641V242.816C413.996 242.992 414.172 243.168 414.347 243.168V247.734H413.294C413.645 247.207 413.645 246.68 413.645 246.153C413.645 244.221 411.889 242.465 409.079 241.411C407.323 240.709 405.742 239.831 404.513 238.953C404.513 238.953 404.513 238.777 404.513 238.602C404.513 238.25 404.337 238.075 404.162 238.075L403.986 235.616H403.81L403.635 238.075C403.459 238.25 403.283 238.426 403.283 238.602C403.283 238.777 403.283 238.777 403.283 238.953C402.054 240.007 400.649 240.885 398.717 241.411C395.907 242.465 394.151 244.221 394.151 246.153C394.151 246.504 394.151 246.856 394.327 247.207H393.624C393.8 246.329 393.976 245.451 393.976 244.573C393.976 240.182 390.639 236.494 386.249 235.967L385.722 234.211C385.722 234.211 385.722 234.211 385.546 234.211L385.195 229.645L384.844 234.211H384.668L384.141 235.967C380.98 236.319 378.17 238.426 377.116 241.411L377.292 236.67H377.819V235.792H377.292V229.645H377.819V229.118H377.468V228.943H377.116V226.66H377.468V226.484H376.941C376.941 226.308 376.941 226.133 376.941 226.133C376.941 225.606 376.59 225.255 376.238 224.903C376.063 224.728 375.711 224.552 375.536 224.377C375.536 224.377 375.536 224.377 375.536 224.201C375.536 224.201 375.536 224.025 375.36 224.025V223.499C375.536 223.499 375.711 223.323 375.711 223.147C375.711 223.323 375.536 223.323 375.36 223.323C375.185 223.323 375.009 223.147 375.009 222.972C375.009 222.796 375.009 222.62 375.185 222.62C375.009 222.62 374.833 222.796 374.833 222.972C374.833 223.147 375.009 223.323 375.185 223.323V223.85C375.185 223.85 375.009 223.85 375.009 224.025V224.201C374.833 224.377 374.658 224.728 374.307 224.728C373.955 224.903 373.604 225.43 373.604 225.957C373.604 226.133 373.604 226.308 373.604 226.308H373.78V226.484H374.131V228.767H373.78V228.943H373.428V229.469H373.955L373.78 235.616H373.253V236.494H373.78L373.604 243.168H372.902V244.046H373.604V247.031H371.321C372.023 245.626 372.55 244.221 372.55 242.641C372.55 237.372 367.633 232.631 360.433 229.996C355.691 228.24 351.652 225.957 348.491 223.323C348.666 223.147 348.666 222.796 348.666 222.445C348.666 221.742 348.315 221.215 347.613 220.864L347.261 214.191H346.735L346.383 220.864C345.856 221.215 345.33 221.742 345.33 222.445C345.33 222.796 345.33 222.972 345.505 223.323C342.344 225.957 338.305 228.24 333.563 229.996C332.158 230.523 330.929 231.05 329.7 231.753V212.259H329.875C330.226 212.259 330.402 212.083 330.402 211.732V211.381C330.402 211.03 330.226 210.854 329.875 210.854H329.173C329.173 210.678 329.173 210.503 329.173 210.327C329.173 208.922 328.47 207.693 327.241 206.99C326.539 206.639 326.012 205.937 325.485 205.41C325.66 205.41 325.66 205.234 325.66 205.059C325.66 204.883 325.485 204.707 325.309 204.707L325.134 202.951H324.958L324.782 204.707C324.607 204.707 324.431 204.883 324.431 205.059C324.431 205.234 324.431 205.234 324.607 205.41C324.08 206.112 323.553 206.639 322.851 206.99C321.797 207.693 320.919 208.922 320.919 210.327C320.919 210.503 320.919 210.678 320.919 210.854H320.216C319.865 210.854 319.689 211.03 319.689 211.381V211.732C319.689 212.083 319.865 212.259 320.216 212.259H320.392V224.728C318.987 220.513 316.001 216.825 312.313 214.542C308.977 212.435 306.167 209.8 303.884 206.639C304.235 206.288 304.586 205.761 304.586 205.059C304.586 204.181 304.059 203.478 303.357 203.127L302.83 195.4C303.181 195.4 303.533 195.575 303.884 195.575C306.694 195.575 309.152 193.468 309.504 190.658C308.801 192.239 307.045 193.292 305.113 193.292C302.479 193.292 300.371 191.185 300.371 188.551C300.371 186.619 301.425 185.038 303.006 184.16C300.196 184.511 298.088 186.97 298.088 189.78C298.088 192.239 299.669 194.522 301.952 195.224L301.425 203.127C300.723 203.478 300.196 204.181 300.196 205.059C300.196 205.761 300.547 206.288 300.898 206.639C298.615 209.8 295.805 212.435 292.469 214.542C287.025 217.879 283.512 223.85 283.512 230.699C283.512 232.631 283.863 234.562 284.39 236.319H279.824C279.824 235.967 279.824 235.792 279.824 235.441C279.824 229.118 275.083 223.85 268.936 223.147L268.233 220.864C268.233 220.864 268.233 220.864 268.058 220.864L267.707 214.366L267.355 220.864C267.18 220.864 267.18 220.864 267.18 220.864L266.477 223.147C260.331 223.85 255.589 229.118 255.589 235.441C255.589 236.67 255.765 237.899 256.116 239.128H251.901V241.06H253.833V250.544H249.442L249.267 237.372H250.496V235.792H249.267L249.091 223.85H249.969V222.269H249.091L248.916 211.381H249.794V210.503H249.267V210.152H248.74V206.112H249.267V205.761H248.389C248.389 205.585 248.564 205.234 248.564 205.059C248.564 204.181 248.037 203.302 247.335 202.951C246.808 202.6 246.457 202.249 246.281 201.898L246.457 201.722C246.457 201.546 246.457 201.546 246.281 201.371V200.317H246.457C246.808 200.317 247.159 199.966 247.159 199.614C246.984 199.79 246.808 199.966 246.633 199.966C246.281 199.966 245.93 199.615 245.93 199.263C245.93 199.088 246.106 198.736 246.281 198.736C245.93 198.736 245.579 199.088 245.579 199.439C245.579 199.79 245.754 199.966 246.106 200.141V201.195C245.93 201.195 245.93 201.371 245.93 201.546C245.93 201.546 245.93 201.722 246.106 201.722C245.754 202.073 245.403 202.424 245.052 202.776C244.349 203.302 243.823 204.005 243.823 204.883C243.823 205.059 243.823 205.41 243.998 205.586H242.066V205.937H242.593V209.976H242.066V210.327H241.54V211.205H242.418L242.242 222.094H241.364V223.674H242.242L242.066 235.616H240.837V237.197H242.066L241.891 250.368H239.608V226.835H239.783C240.31 226.835 240.662 226.484 240.662 225.957V225.43C240.662 224.903 240.31 224.552 239.783 224.552H238.554C238.554 224.201 238.554 224.025 238.554 223.674C238.554 221.567 237.325 219.635 235.744 218.581C234.691 217.879 233.812 217.001 233.11 216.123C233.286 215.947 233.286 215.771 233.286 215.596C233.286 215.244 233.11 215.069 232.934 214.893L232.759 212.083H232.583L232.407 214.893C232.232 215.069 232.056 215.244 232.056 215.596C232.056 215.771 232.056 215.947 232.232 216.123C231.529 217.176 230.651 218.054 229.598 218.581C227.841 219.635 226.788 221.567 226.788 223.674C226.788 224.025 226.788 224.377 226.788 224.552H225.734C225.207 224.552 224.856 224.903 224.856 225.43V225.957C224.856 226.484 225.207 226.835 225.734 226.835H225.91V250.368H221.168V250.544ZM418.738 245.451C418.738 244.748 418.913 244.221 419.265 244.046C419.44 244.221 419.791 244.748 419.791 245.451V248.085H418.913V245.451H418.738ZM415.928 245.099C415.928 244.397 416.455 243.695 417.157 243.519C417.86 243.695 418.387 244.221 418.387 245.099V247.909H416.63H415.928V245.099ZM414.699 245.451C414.699 244.748 414.874 244.221 415.225 244.046C415.401 244.221 415.752 244.748 415.752 245.451V247.909H414.874V245.451H414.699ZM376.59 227.186C376.59 227.011 376.59 227.011 376.59 227.186L376.765 227.011C376.765 227.011 376.941 227.011 376.941 227.186V228.943H376.59V227.186ZM376.063 227.186C376.063 227.011 376.063 227.011 376.063 227.186L376.238 227.011C376.238 227.011 376.414 227.011 376.414 227.186V228.943H376.063V227.186ZM375.36 227.186C375.536 227.011 375.36 227.011 375.36 227.186L375.536 227.011C375.536 227.011 375.711 227.011 375.711 227.186V228.943H375.36V227.186ZM374.833 227.186C374.833 227.011 374.833 227.011 374.833 227.186L375.009 227.011C375.009 227.011 375.185 227.011 375.185 227.186V228.943H374.833V227.186ZM374.307 227.186C374.307 227.011 374.307 227.011 374.307 227.186L374.482 227.011C374.482 227.011 374.658 227.011 374.658 227.186V228.943H374.307V227.186ZM327.417 215.947C327.417 214.893 327.768 214.015 328.119 213.664C328.47 214.015 328.822 214.893 328.822 215.947V220.162H327.417V215.947ZM323.026 215.42C323.026 214.191 323.729 213.313 324.958 212.961C326.012 213.313 326.89 214.191 326.89 215.42V219.986H323.202V215.42H323.026ZM320.919 215.947C320.919 214.893 321.27 214.015 321.621 213.664C321.972 214.015 322.324 214.893 322.324 215.947V220.162H320.919V215.947ZM246.984 207.166C246.984 206.99 247.159 206.99 247.159 206.99H247.335C247.511 206.99 247.511 207.166 247.511 207.166V210.327H246.984V207.166ZM246.106 207.166C246.106 206.99 246.281 206.99 246.281 206.99H246.457C246.633 206.99 246.633 207.166 246.633 207.166V210.327H246.106V207.166ZM245.052 207.166C245.052 206.99 245.228 206.99 245.228 206.99H245.403C245.579 206.99 245.579 207.166 245.579 207.166V210.327H245.052V207.166ZM243.998 207.166C243.998 206.99 244.174 206.99 244.174 206.99H244.349C244.525 206.99 244.525 207.166 244.525 207.166V210.327H243.998V207.166ZM243.12 207.166C243.12 206.99 243.296 206.99 243.296 206.99H243.471C243.647 206.99 243.647 207.166 243.647 207.166V210.327H243.12V207.166ZM236.271 232.279C236.271 230.699 236.798 229.294 237.325 228.943C238.027 229.294 238.378 230.699 238.378 232.279V238.602H236.095V232.279H236.271ZM229.773 231.577C229.773 229.821 231.003 228.24 232.583 227.889C234.164 228.416 235.393 229.821 235.393 231.577V238.602H229.773V231.577ZM226.612 232.279C226.612 230.699 227.139 229.294 227.666 228.943C228.368 229.294 228.72 230.699 228.72 232.279V238.602H226.436V232.279H226.612Z" fill="url(#paint3_linear_2684_14)"/>
<path d="M425.414 322.006V270.199H425.765C426.468 270.199 427.17 269.672 427.17 268.794V268.091C427.17 267.389 426.644 266.686 425.765 266.686H424.009C424.009 266.16 424.185 265.633 424.185 265.106C424.185 261.593 422.253 258.432 419.443 256.676C417.687 255.622 416.282 254.218 415.053 252.637C415.228 252.461 415.404 252.11 415.404 251.759C415.404 251.232 415.053 250.881 414.702 250.705L414.35 246.139H413.999L413.648 250.705C413.297 250.881 412.945 251.232 412.945 251.759C412.945 252.11 413.121 252.461 413.297 252.637C412.067 254.218 410.662 255.622 408.906 256.676C406.096 258.432 404.165 261.593 404.165 265.106C404.165 265.633 404.165 266.16 404.34 266.686H402.584C401.881 266.686 401.179 267.213 401.179 268.091V268.794C401.179 269.496 401.706 270.199 402.584 270.199H402.76V322.006H394.857L394.506 301.985H396.613V299.351H394.506L394.154 278.453H395.559V275.818H394.154L393.803 256.676H395.384V255.096H394.506V254.569H393.627V247.544H394.506V246.842H392.925C393.101 246.49 393.101 245.963 393.101 245.437C393.101 243.856 392.223 242.451 390.993 241.573C390.291 241.046 389.588 240.519 389.061 239.641C389.237 239.466 389.237 239.466 389.237 239.29C389.237 239.114 389.061 238.939 388.886 238.763L388.71 237.007H388.886C389.588 237.007 390.115 236.48 390.291 235.778C390.115 236.129 389.764 236.48 389.237 236.48C388.535 236.48 388.183 235.953 388.183 235.426C388.183 234.9 388.359 234.548 388.886 234.373C388.183 234.373 387.656 235.075 387.656 235.602C387.656 236.129 388.008 236.656 388.535 236.831L388.359 238.588C388.183 238.588 388.008 238.763 388.008 239.114C388.008 239.29 388.008 239.466 388.183 239.466C387.656 240.168 386.954 240.871 386.252 241.397C385.022 242.1 384.144 243.505 384.144 245.261C384.144 245.788 384.144 246.139 384.32 246.666H382.739V247.368H383.617V254.393H382.739V254.92H381.861V256.501H383.442L383.09 275.643H381.861V278.277H383.266L382.915 299.176H380.807V301.81H382.915L382.564 321.83H377.119V290.219H377.295C377.646 290.219 377.998 289.868 377.998 289.517V289.165C377.998 288.814 377.646 288.463 377.295 288.463H376.241C376.241 288.112 376.241 287.936 376.241 287.585C376.241 285.653 375.188 283.897 373.607 283.019C372.729 282.492 371.851 281.614 371.148 280.736C371.324 280.56 371.324 280.385 371.324 280.209C371.324 280.033 371.148 279.682 370.973 279.682L370.797 277.223H370.622L370.446 279.682C370.27 279.858 370.095 280.033 370.095 280.209C370.095 280.385 370.095 280.56 370.27 280.736C369.568 281.614 368.865 282.492 367.812 283.019C366.231 283.897 365.177 285.653 365.177 287.585C365.177 287.936 365.177 288.112 365.177 288.463H364.299C363.948 288.463 363.597 288.814 363.597 289.165V289.517C363.597 289.868 363.948 290.219 364.299 290.219H364.475V302.688H360.787C361.489 300.229 362.016 297.595 362.016 294.961C362.016 285.477 357.099 277.399 349.547 272.657C344.981 269.847 340.942 266.16 337.781 261.769C338.308 261.242 338.659 260.364 338.659 259.662C338.659 258.432 337.957 257.379 336.903 256.852L336.201 246.315C336.727 246.315 337.079 246.49 337.605 246.49C341.645 246.49 344.806 243.505 345.333 239.641C344.279 241.924 341.996 243.329 339.362 243.329C335.674 243.329 332.864 240.344 332.864 236.831C332.864 234.197 334.444 231.914 336.552 230.86C332.688 231.387 329.703 234.548 329.703 238.588C329.703 242.1 331.986 244.91 335.147 245.963L334.444 256.676C333.391 257.203 332.688 258.257 332.688 259.486C332.688 260.364 333.039 261.067 333.566 261.593C330.405 265.984 326.542 269.672 321.8 272.482C314.424 277.048 309.331 285.302 309.331 294.785C309.331 297.419 309.682 300.054 310.56 302.512H304.589C304.589 302.161 304.589 301.634 304.589 301.283C304.589 292.678 298.091 285.477 289.662 284.424L288.608 281.263H288.433L287.906 272.306L287.028 281.438C286.852 281.438 286.852 281.438 286.852 281.438L285.798 284.599C277.369 285.653 270.871 292.678 270.871 301.459C270.871 303.215 271.222 304.795 271.573 306.376H265.778V308.835H268.412V321.83H264.373L264.197 308.132H265.778V306.025H264.197L263.846 289.692H264.9V287.585H263.67L263.319 272.657H264.549V271.428H263.846V271.077H263.144V265.633H263.846V265.106H262.617C262.792 264.755 262.792 264.403 262.792 264.052C262.792 262.823 262.09 261.769 261.212 261.067C260.685 260.715 260.158 260.189 259.631 259.662C259.631 259.662 259.807 259.486 259.807 259.31C259.807 259.135 259.631 258.959 259.631 258.959L259.456 257.554H259.631C260.158 257.554 260.509 257.203 260.685 256.676C260.509 257.027 260.334 257.203 259.982 257.203C259.456 257.203 259.104 256.852 259.104 256.325C259.104 255.974 259.28 255.622 259.631 255.622C259.104 255.622 258.753 256.149 258.753 256.676C258.753 257.203 259.104 257.554 259.456 257.73L259.28 259.135C259.104 259.135 259.104 259.31 259.104 259.486C259.104 259.662 259.104 259.662 259.28 259.837C258.929 260.364 258.402 260.891 257.699 261.242C256.646 261.769 256.119 262.998 256.119 264.228C256.119 264.579 256.119 264.93 256.295 265.281H255.065V265.808H255.768V271.252H255.065V271.604H254.363V272.833H255.592L255.241 287.76H254.011V289.868H255.065L254.714 306.2H253.133V308.308H254.714L254.538 322.006H244.001V295.136H244.177C244.704 295.136 245.055 294.785 245.055 294.258V293.731C245.055 293.205 244.704 292.853 244.177 292.853H243.123C243.123 292.502 243.123 292.327 243.123 291.975C243.123 289.868 242.069 287.936 240.313 286.882C239.26 286.18 238.381 285.477 237.679 284.424C237.855 284.248 237.855 284.072 237.855 283.897C237.855 283.546 237.679 283.37 237.503 283.194L237.328 280.56H237.152L236.977 283.194C236.801 283.37 236.625 283.546 236.625 283.897C236.625 284.072 236.625 284.248 236.801 284.424C236.098 285.477 235.22 286.18 234.167 286.882C232.41 287.936 231.357 289.868 231.357 291.975C231.357 292.327 231.357 292.502 231.357 292.853H230.303C229.776 292.853 229.425 293.205 229.425 293.731V294.258C229.425 294.785 229.776 295.136 230.303 295.136H230.479V322.006H222.049V363.452H430.332V322.006H425.414ZM233.464 306.376H231.357V300.229C231.357 298.649 231.884 297.419 232.41 296.893C233.113 297.244 233.464 298.649 233.464 300.229V306.376ZM239.962 306.376H234.342V299.527C234.342 297.771 235.572 296.366 237.152 295.839C238.733 296.366 239.962 297.771 239.962 299.527V306.376ZM243.123 306.376H241.016V300.229C241.016 298.649 241.543 297.419 242.069 296.893C242.772 297.244 243.123 298.649 243.123 300.229V306.376ZM257.173 271.252H256.47V266.862C256.47 266.686 256.646 266.511 256.821 266.511H256.997C257.173 266.511 257.348 266.686 257.348 266.862V271.252H257.173ZM258.402 271.252H257.699V266.862C257.699 266.686 257.875 266.511 258.051 266.511H258.226C258.402 266.511 258.578 266.686 258.578 266.862V271.252H258.402ZM259.807 271.252H259.104V266.862C259.104 266.686 259.28 266.511 259.456 266.511H259.631C259.807 266.511 259.982 266.686 259.982 266.862V271.252H259.807ZM261.212 271.252H260.509V266.862C260.509 266.686 260.685 266.511 260.861 266.511H261.036C261.212 266.511 261.387 266.686 261.387 266.862V271.252H261.212ZM262.617 271.252H261.914V266.862C261.914 266.686 262.09 266.511 262.265 266.511H262.441C262.617 266.511 262.792 266.686 262.792 266.862V271.252H262.617ZM367.285 300.581H365.353V294.961C365.353 293.556 365.704 292.327 366.407 291.975C366.934 292.327 367.46 293.556 367.46 294.961V300.581H367.285ZM373.256 300.581H368.163V294.258C368.163 292.678 369.217 291.273 370.622 290.922C372.027 291.273 373.08 292.678 373.08 294.258V300.581H373.256ZM376.241 300.581H374.31V294.961C374.31 293.556 374.661 292.327 375.363 291.975C375.89 292.327 376.417 293.556 376.417 294.961V300.581H376.241ZM385.725 254.393H384.847V248.598C384.847 248.422 385.022 248.247 385.198 248.247H385.373C385.549 248.247 385.725 248.422 385.725 248.598V254.393ZM387.481 254.393H386.603V248.598C386.603 248.422 386.778 248.247 386.954 248.247H387.13C387.305 248.247 387.481 248.422 387.481 248.598V254.393ZM389.237 254.393H388.359V248.598C388.359 248.422 388.535 248.247 388.71 248.247H388.886C389.061 248.247 389.237 248.422 389.237 248.598V254.393ZM390.993 254.393H390.115V248.598C390.115 248.422 390.291 248.247 390.466 248.247H390.642C390.818 248.247 390.993 248.422 390.993 248.598V254.393ZM392.749 254.393H391.871V248.598C391.871 248.422 392.047 248.247 392.223 248.247H392.398C392.574 248.247 392.749 248.422 392.749 248.598V254.393ZM408.028 288.99H404.34V278.628C404.34 275.994 405.043 273.887 406.096 273.184C407.15 273.887 407.852 275.994 407.852 278.628V288.99H408.028ZM418.741 288.99H409.433V277.575C409.433 274.765 411.365 272.306 413.999 271.428C416.633 272.131 418.565 274.589 418.565 277.575V288.99H418.741ZM424.009 288.99H420.321V278.628C420.321 275.994 421.024 273.887 422.078 273.184C423.131 273.887 423.834 275.994 423.834 278.628V288.99H424.009Z" fill="url(#paint4_linear_2684_14)"/>
<path d="M422.833 351.237L420.892 283.453H424.625V274.942H420.594L418.951 214.623H424.028V209.696H421.042V208.053H418.056V186.105H421.042V184.015H416.264C416.712 182.671 416.861 181.328 416.861 179.835C416.861 174.758 414.174 170.428 410.142 167.89C407.753 166.397 405.514 164.307 403.872 162.067C404.17 161.769 404.319 161.321 404.319 160.873C404.319 160.276 403.872 159.678 403.424 159.38L403.125 153.706C403.424 153.706 403.573 153.855 403.872 153.855C405.962 153.855 407.753 152.213 408.052 150.272C407.455 151.466 406.26 152.213 404.917 152.213C402.976 152.213 401.333 150.571 401.333 148.63C401.333 147.286 402.08 146.091 403.274 145.494C401.184 145.793 399.691 147.585 399.691 149.675C399.691 151.466 400.885 153.109 402.528 153.706L402.08 159.529C401.483 159.828 401.184 160.275 401.184 161.022C401.184 161.47 401.333 161.918 401.632 162.216C399.99 164.605 397.899 166.546 395.361 168.039C391.33 170.578 388.642 174.907 388.642 179.984C388.642 181.477 388.792 182.821 389.24 184.164H384.462V186.255H387.448V208.203H384.462V209.845H381.476V214.772H386.552L384.76 275.091H380.729V283.602H384.462L382.521 351.387H370.427V344.369H363.708L361.319 260.907H366.097V250.157H361.021L358.781 173.862H365.201V167.741H361.469V165.651H357.587V137.88H361.469V135.192H355.347C355.944 133.55 356.094 131.758 356.094 129.966C356.094 123.546 352.66 118.022 347.733 114.887C344.597 112.946 341.91 110.407 339.819 107.421C340.267 107.123 340.417 106.526 340.417 105.928C340.417 105.032 339.969 104.435 339.222 103.987L338.774 96.8206C339.073 96.8206 339.372 96.9699 339.67 96.9699C342.358 96.9699 344.597 95.029 344.896 92.3415C344.149 93.8345 342.656 94.8797 340.865 94.8797C338.476 94.8797 336.385 92.9387 336.385 90.4005C336.385 88.6088 337.431 87.1158 338.924 86.3692C336.385 86.6679 334.295 88.9074 334.295 91.5949C334.295 93.9838 335.788 95.9248 337.878 96.6713L337.431 103.987C336.684 104.286 336.236 105.032 336.236 105.928C336.236 106.526 336.535 106.973 336.833 107.421C334.743 110.407 332.056 112.946 328.92 114.887C323.844 118.022 320.559 123.546 320.559 129.966C320.559 131.758 320.858 133.55 321.306 135.192H315.184V137.88H318.917V165.651H315.184V167.741H312.049V173.862H318.469L316.229 250.157H311.153V260.907H315.931L315.333 282.557H299.656C302.194 274.494 303.538 265.984 303.538 257.025C303.538 226.119 287.115 198.946 262.628 183.716C247.549 174.46 234.41 162.216 224.108 147.883C226.049 146.091 227.243 143.553 227.243 140.716C227.243 136.685 224.854 133.102 221.271 131.609L219.031 96.9699C220.524 97.2686 222.017 97.4179 223.66 97.4179C236.799 97.4179 247.549 87.713 249.191 75.022C245.757 82.338 238.292 87.2651 229.781 87.2651C217.837 87.2651 208.132 77.5602 208.132 65.6158C208.132 57.1054 213.208 49.6401 220.375 46.2061C207.684 47.8484 197.979 58.5984 197.979 71.7373C197.979 83.0845 205.444 92.7894 215.747 96.2234L213.507 131.758C210.073 133.251 207.535 136.835 207.535 140.866C207.535 143.703 208.729 146.241 210.67 148.032C200.368 162.366 187.378 174.46 172.149 183.866C147.663 199.095 131.24 226.119 131.24 257.175C131.24 265.984 132.583 274.644 135.122 282.706H121.983L121.385 261.057H126.163V250.307H120.938L118.698 174.012H125.118V167.89H121.385V165.8H117.503V138.029H121.385V135.341H115.264C115.861 133.699 116.01 131.907 116.01 130.116C116.01 123.696 112.576 118.171 107.649 115.036C104.514 113.095 101.826 110.557 99.7361 107.571C100.184 107.272 100.333 106.675 100.333 106.078C100.333 105.182 99.8854 104.585 99.1389 104.137L98.691 96.9699C98.9896 96.9699 99.2882 97.1192 99.5868 97.1192C102.274 97.1192 104.514 95.1783 104.812 92.4908C104.066 93.9838 102.573 95.029 100.781 95.029C98.3924 95.029 96.3021 93.088 96.3021 90.5498C96.3021 88.7581 97.3472 87.2651 98.8403 86.5186C96.3021 86.8172 94.2118 89.0567 94.2118 91.7442C94.2118 94.1331 95.7049 96.0741 97.7951 96.8206L97.3472 104.137C96.6007 104.435 96.1528 105.182 96.1528 106.078C96.1528 106.675 96.4514 107.123 96.75 107.571C94.6597 110.557 91.9722 113.095 88.8368 115.036C83.7604 118.171 80.4757 123.696 80.4757 130.116C80.4757 131.907 80.7743 133.699 81.2222 135.341H75.1007V138.029H79.1319V165.8H75.3993V167.89H71.6667V174.012H78.0868L75.8472 250.307H70.7708V261.057H75.5486L73.1597 344.22H66.441V351.237H47.0313L45.0903 283.453H48.8229V274.942H44.7917L43.2986 214.623H48.375V209.696H45.3889V208.053H42.4028V186.105H45.3889V184.015H40.6111C41.059 182.671 41.2083 181.328 41.2083 179.835C41.2083 174.758 38.5208 170.428 34.4896 167.89C32.1007 166.397 29.8611 164.307 28.2187 162.067C28.5174 161.769 28.6667 161.321 28.6667 160.873C28.6667 160.276 28.2188 159.678 27.7708 159.38L27.4722 153.706C27.7708 153.706 27.9201 153.855 28.2187 153.855C30.309 153.855 32.1007 152.213 32.3993 150.272C31.8021 151.466 30.6076 152.213 29.2639 152.213C27.3229 152.213 25.6806 150.571 25.6806 148.63C25.6806 147.286 26.4271 146.091 27.6215 145.494C25.5313 145.793 24.0382 147.585 24.0382 149.675C24.0382 151.466 25.2326 153.109 26.875 153.706L26.4271 159.529C25.8299 159.828 25.5313 160.275 25.5313 161.022C25.5313 161.47 25.6806 161.918 25.9792 162.216C24.3368 164.605 22.2465 166.546 19.7083 168.039C15.6771 170.578 12.9896 174.907 12.9896 179.984C12.9896 181.477 13.1389 182.821 13.5868 184.164H8.95833V186.255H11.9444V208.203H8.95833V209.845H5.97222V214.772H11.0486L9.25694 274.942H5.22569V283.453H8.95833L7.01736 351.237H0V363.032H6.71875H47.3299H72.5625H119.444H124.222H313.094H315.483H364.604H382.521H423.132H429.851V351.237H422.833ZM412.531 189.987C412.531 189.39 413.128 188.793 413.726 188.793H414.323C414.92 188.793 415.517 189.39 415.517 189.987V208.053H412.531V189.987ZM406.858 189.987C406.858 189.39 407.455 188.793 408.052 188.793H408.649C409.247 188.793 409.844 189.39 409.844 189.987V208.053H406.858V189.987ZM401.333 189.987C401.333 189.39 401.931 188.793 402.528 188.793H403.125C403.722 188.793 404.319 189.39 404.319 189.987V208.053H401.333V189.987ZM395.809 189.987C395.809 189.39 396.406 188.793 397.003 188.793H397.601C398.198 188.793 398.795 189.39 398.795 189.987V208.053H395.809V189.987ZM390.285 189.987C390.285 189.39 390.882 188.793 391.479 188.793H392.076C392.674 188.793 393.271 189.39 393.271 189.987V208.053H390.285V189.987ZM351.017 142.807C351.017 141.911 351.764 141.314 352.51 141.314H353.257C354.153 141.314 354.75 142.06 354.75 142.807V165.501H351.017V142.807ZM344 142.807C344 141.911 344.747 141.314 345.493 141.314H346.24C347.135 141.314 347.733 142.06 347.733 142.807V165.501H344V142.807ZM336.983 142.807C336.983 141.911 337.729 141.314 338.476 141.314H339.222C340.118 141.314 340.715 142.06 340.715 142.807V165.501H336.983V142.807ZM329.965 142.807C329.965 141.911 330.712 141.314 331.458 141.314H332.205C333.101 141.314 333.698 142.06 333.698 142.807V165.501H329.965V142.807ZM322.948 142.807C322.948 141.911 323.694 141.314 324.441 141.314H325.188C326.083 141.314 326.681 142.06 326.681 142.807V165.501H322.948V142.807ZM110.486 142.807C110.486 141.911 111.233 141.314 111.979 141.314H112.726C113.622 141.314 114.219 142.06 114.219 142.807V165.501H110.486V142.807ZM103.469 142.807C103.469 141.911 104.215 141.314 104.962 141.314H105.708C106.604 141.314 107.201 142.06 107.201 142.807V165.501H103.469V142.807ZM96.4514 142.807C96.4514 141.911 97.1979 141.314 97.9444 141.314H98.691C99.5868 141.314 100.184 142.06 100.184 142.807V165.501H96.4514V142.807ZM89.434 142.807C89.434 141.911 90.1806 141.314 90.9271 141.314H91.6736C92.5694 141.314 93.1667 142.06 93.1667 142.807V165.501H89.434V142.807ZM82.4167 142.807C82.4167 141.911 83.1632 141.314 83.9097 141.314H84.6563C85.5521 141.314 86.1493 142.06 86.1493 142.807V165.501H82.4167V142.807ZM36.7292 189.987C36.7292 189.39 37.3264 188.793 37.9236 188.793H38.5208C39.1181 188.793 39.7153 189.39 39.7153 189.987V208.053H36.7292V189.987ZM31.2049 189.987C31.2049 189.39 31.8021 188.793 32.3993 188.793H32.8472C33.4444 188.793 34.0417 189.39 34.0417 189.987V208.053H31.0556V189.987H31.2049ZM25.5313 189.987C25.5313 189.39 26.1285 188.793 26.7257 188.793H27.3229C27.9201 188.793 28.5174 189.39 28.5174 189.987V208.053H25.5313V189.987ZM20.0069 189.987C20.0069 189.39 20.6042 188.793 21.2014 188.793H21.7986C22.3958 188.793 22.9931 189.39 22.9931 189.987V208.053H20.0069V189.987ZM14.4826 189.987C14.4826 189.39 15.0799 188.793 15.6771 188.793H16.2743C16.8715 188.793 17.4688 189.39 17.4688 189.987V208.053H14.4826V189.987Z" fill="#006E32"/>
</g>
<rect width="430" height="364" fill="#006E32" fill-opacity="0.9"/>
</g>
<defs>
<linearGradient id="paint0_linear_2684_14" x1="215.647" y1="136.249" x2="215.647" y2="338.579" gradientUnits="userSpaceOnUse">
<stop stop-color="#D1D8DB"/>
<stop offset="1" stop-color="white"/>
</linearGradient>
<linearGradient id="paint1_linear_2684_14" x1="106.575" y1="140.847" x2="106.575" y2="219.973" gradientUnits="userSpaceOnUse">
<stop stop-color="#A3B6BC"/>
<stop offset="0.6667" stop-color="#B4C2C5"/>
<stop offset="1" stop-color="#D8E7EB"/>
</linearGradient>
<linearGradient id="paint2_linear_2684_14" x1="83.6" y1="220.753" x2="83.6" y2="411.946" gradientUnits="userSpaceOnUse">
<stop offset="0.0430108" stop-color="#008F38"/>
<stop offset="0.6344" stop-color="#0FAD56"/>
<stop offset="1" stop-color="#006E32"/>
</linearGradient>
<linearGradient id="paint3_linear_2684_14" x1="326.07" y1="188.188" x2="326.07" y2="263.704" gradientUnits="userSpaceOnUse">
<stop stop-color="#A3B6BC"/>
<stop offset="0.6667" stop-color="#B4C2C5"/>
<stop offset="1" stop-color="#D8E7EB"/>
</linearGradient>
<linearGradient id="paint4_linear_2684_14" x1="325.545" y1="256.441" x2="325.545" y2="412.665" gradientUnits="userSpaceOnUse">
<stop offset="0.0430108" stop-color="#008F38"/>
<stop offset="0.6344" stop-color="#0FAD56"/>
<stop offset="1" stop-color="#006E32"/>
</linearGradient>
<clipPath id="clip0_2684_14">
<rect width="430" height="347" fill="white"/>
</clipPath>
<clipPath id="clip1_2684_14">
<rect width="430" height="364" fill="white"/>
</clipPath>
</defs>
</svg>
