<svg width="25" height="24" viewBox="0 0 25 24" fill="none" xmlns="http://www.w3.org/2000/svg">
<path d="M17.6443 12.0001C17.6517 12 17.6592 12 17.6667 12C20.152 12 22.1667 14.0147 22.1667 16.5C22.1667 18.9853 20.152 21 17.6667 21H7.16675C4.40533 21 2.16675 18.7614 2.16675 16C2.16675 13.4003 4.15073 11.2641 6.68717 11.0227M17.6443 12.0001C17.6591 11.8354 17.6667 11.6686 17.6667 11.5C17.6667 8.46243 15.2043 6 12.1667 6C9.28999 6 6.92908 8.20862 6.68717 11.0227M17.6443 12.0001C17.542 13.1345 17.0953 14.1696 16.4095 15M6.68717 11.0227C6.84501 11.0077 7.00498 11 7.16675 11C8.29257 11 9.33149 11.3721 10.1672 12" stroke="#A0A1A8" stroke-width="1.5" stroke-linecap="round" stroke-linejoin="round"/>
<path d="M11.1667 5.53058C11.0728 5.04705 10.8995 4.5707 10.6419 4.12013C10.0261 3.04292 9.04278 2.31347 7.94421 2C8.11398 3.37965 7.47161 4.79173 6.20434 5.53058C4.93708 6.26942 3.40489 6.12516 2.30659 5.28687C2.02614 6.40434 2.16007 7.62899 2.77595 8.7062C3.60881 10.1629 5.1136 10.9839 6.66675 11" stroke="#A0A1A8" stroke-width="1.5" stroke-linejoin="round"/>
</svg>
